Mutua-Regular.glyphspackage
{
glyphname = exclam;
layers = (
{
guides = (
{
pos = (-211,696);
}
);
layerId = master01;
shapes = (
{
closed = 1;
nodes = (
(259,-3,l),
(259,129,l),
(128,129,l),
(128,-3,l)
);
},
{
closed = 1;
nodes = (
(131,216,l),
(257,216,l),
(271,696,l),
(117,696,l)
);
}
);
userData = {
com.schriftgestaltung.Glyphs.lastChange = "2021-09-28 04:58:51 +0000";
};
width = 388;
}
);
unicode = 33;
}
{
glyphname = quotedbl;
layers = (
{
layerId = master01;
shapes = (
{
closed = 1;
nodes = (
(166,452,l),
(175,699,l),
(45,699,l),
(54,453,l)
);
},
{
closed = 1;
nodes = (
(366,452,l),
(375,699,l),
(245,699,l),
(254,453,l)
);
}
);
userData = {
com.schriftgestaltung.Glyphs.lastChange = "2021-09-27 19:28:13 +0000";
};
width = 420;
}
);
unicode = 34;
}
{
glyphname = numbersign;
layers = (
{
layerId = master01;
shapes = (
{
closed = 1;
nodes = (
(190,0,l),
(316,0,l),
(316,719,l),
(190,719,l)
);
},
{
closed = 1;
nodes = (
(470,0,l),
(596,0,l),
(596,719,l),
(470,719,l)
);
},
{
closed = 1;
nodes = (
(59,566,l),
(59,440,l),
(728,441,l),
(728,567,l)
);
},
{
closed = 1;
nodes = (
(59,285,l),
(59,159,l),
(728,160,l),
(729,286,l)
);
}
);
userData = {
com.schriftgestaltung.Glyphs.lastChange = "2021-09-28 04:47:59 +0000";
};
width = 788;
}
);
unicode = 35;
}
{
glyphname = ampersand;
layers = (
{
layerId = master01;
shapes = (
{
closed = 1;
nodes = (
(255,562,l),
(255,616,o),
(287,629,o),
(318,629,cs),
(579,629,l),
(579,757,l),
(289,757,ls),
(192,757,o),
(126,701,o),
(127,616,c),
(127,547,l),
(127,495,o),
(148,459,o),
(195,448,c),
(195,380,l),
(738,-9,l),
(738,137,l),
(270,478,l),
(255,489,o),
(255,503,o),
(255,522,c)
);
},
{
closed = 1;
nodes = (
(202,421,l),
(140,421,o),
(70,392,o),
(70,304,cs),
(70,154,ls),
(70,50,o),
(128,0,o),
(247,0,cs),
(451,0,ls),
(593,0,o),
(640,81,o),
(636,198,c),
(636,425,l),
(520,425,l),
(520,206,l),
(521,141,o),
(494,129,o),
(447,125,c),
(261,125,l),
(219,125,o),
(198,144,o),
(198,187,c),
(198,325,l),
(197,372,o),
(228,382,o),
(250,385,c),
(287,385,l),
(287,421,l)
);
}
);
userData = {
com.schriftgestaltung.Glyphs.lastChange = "2021-09-28 04:44:30 +0000";
};
width = 758;
}
);
unicode = 38;
}
{
glyphname = quotesingle;
layers = (
{
layerId = master01;
shapes = (
{
closed = 1;
nodes = (
(167,452,l),
(176,699,l),
(46,699,l),
(55,453,l)
);
}
);
userData = {
com.schriftgestaltung.Glyphs.lastChange = "2021-09-27 19:28:08 +0000";
};
width = 220;
}
);
unicode = 39;
}
{
glyphname = parenleft;
layers = (
{
layerId = master01;
shapes = (
{
closed = 1;
nodes = (
(307,-36,ls),
(261,-36,o),
(231,-11,o),
(231,48,cs),
(231,573,ls),
(231,638,o),
(261,677,o),
(307,677,cs),
(350,677,l),
(350,788,l),
(309,788,ls),
(172,788,o),
(100,705,o),
(100,558,cs),
(100,84,l),
(100,-70,o),
(151,-147,o),
(309,-147,cs),
(350,-147,l),
(350,-36,l)
);
}
);
userData = {
com.schriftgestaltung.Glyphs.lastChange = "2021-09-28 05:10:29 +0000";
};
width = 410;
}
);
unicode = 40;
}
{
glyphname = parenright;
layers = (
{
guides = (
{
angle = 90;
pos = (236,144);
}
);
layerId = master01;
shapes = (
{
closed = 1;
nodes = (
(60,-36,l),
(60,-147,l),
(101,-147,ls),
(259,-147,o),
(310,-70,o),
(310,84,c),
(310,558,ls),
(310,705,o),
(238,788,o),
(101,788,cs),
(60,788,l),
(60,677,l),
(103,677,ls),
(149,677,o),
(179,638,o),
(179,593,cs),
(179,28,ls),
(179,-11,o),
(149,-36,o),
(103,-36,cs)
);
}
);
userData = {
com.schriftgestaltung.Glyphs.lastChange = "2021-09-28 05:10:32 +0000";
};
width = 410;
}
);
unicode = 41;
}
{
glyphname = asterisk;
layers = (
{
layerId = master01;
shapes = (
{
closed = 1;
nodes = (
(110,412,l),
(173,467,l),
(181,463,l),
(161,384,l),
(287,384,l),
(267,464,l),
(274,468,l),
(328,408,l),
(392,517,l),
(315,541,l),
(315,549,l),
(393,569,l),
(331,678,l),
(274,621,l),
(267,624,l),
(285,705,l),
(159,705,l),
(181,628,l),
(173,625,l),
(115,682,l),
(52,572,l),
(129,549,l),
(129,541,l),
(50,524,l)
);
}
);
userData = {
com.schriftgestaltung.Glyphs.lastChange = "2021-09-28 05:26:12 +0000";
};
width = 443;
}
);
unicode = 42;
}
{
glyphname = comma;
layers = (
{
layerId = master01;
shapes = (
{
closed = 1;
nodes = (
(162,-114,l),
(225,129,l),
(77,129,l),
(47,-114,l)
);
}
);
userData = {
com.schriftgestaltung.Glyphs.lastChange = "2021-09-28 05:20:42 +0000";
};
width = 264;
}
);
unicode = 44;
}
{
glyphname = hyphen;
layers = (
{
guides = (
{
angle = 90;
pos = (370,49);
}
);
layerId = master01;
shapes = (
{
closed = 1;
nodes = (
(370,221,l),
(370,350,l),
(58,350,l),
(58,221,l)
);
},
{
closed = 1;
nodes = (
(187,221,l),
(187,350,l),
(58,350,l),
(58,221,l)
);
}
);
userData = {
com.schriftgestaltung.Glyphs.lastChange = "2021-09-28 05:28:23 +0000";
};
width = 428;
}
);
unicode = 45;
}
{
glyphname = period;
layers = (
{
layerId = master01;
shapes = (
{
closed = 1;
nodes = (
(193,0,l),
(193,149,l),
(44,149,l),
(44,0,l)
);
}
);
userData = {
com.schriftgestaltung.Glyphs.lastChange = "2021-09-28 05:22:33 +0000";
};
width = 237;
}
);
unicode = 46;
}
{
glyphname = slash;
layers = (
{
layerId = master01;
shapes = (
{
closed = 1;
nodes = (
(41,-148,l),
(167,-148,l),
(399,756,l),
(273,756,l)
);
}
);
userData = {
com.schriftgestaltung.Glyphs.lastChange = "2021-09-28 05:27:24 +0000";
};
width = 476;
}
);
unicode = 47;
}
{
color = 9;
glyphname = zero;
layers = (
{
layerId = master01;
shapes = (
{
closed = 1;
nodes = (
(662,528,l),
(662,675,o),
(598,758,o),
(462,758,cs),
(259,758,ls),
(123,758,o),
(58,675,o),
(58,528,cs),
(58,228,ls),
(58,81,o),
(123,-2,o),
(259,-2,cs),
(461,-2,ls),
(598,-2,o),
(662,81,o),
(662,228,cs)
);
},
{
closed = 1;
nodes = (
(307,122,l),
(213,122,o),
(178,159,o),
(178,249,cs),
(178,507,ls),
(178,597,o),
(213,634,o),
(307,634,cs),
(423,634,ls),
(507,634,o),
(542,597,o),
(542,507,cs),
(542,249,ls),
(542,159,o),
(507,122,o),
(423,122,cs)
);
},
{
closed = 1;
nodes = (
(139,160,l),
(230,92,l),
(583,576,l),
(492,643,l)
);
}
);
userData = {
com.schriftgestaltung.Glyphs.lastChange = "2021-09-27 01:18:20 +0000";
};
width = 720;
}
);
unicode = 48;
}
{
color = 6;
glyphname = one;
layers = (
{
layerId = master01;
shapes = (
{
closed = 1;
nodes = (
(314,755,l),
(314,-1,l),
(444,-1,l),
(444,755,l)
);
},
{
closed = 1;
nodes = (
(314,755,l),
(125,755,l),
(125,632,l),
(314,632,l)
);
},
{
closed = 1;
nodes = (
(82,-2,l),
(648,-1,l),
(648,125,l),
(82,124,l)
);
}
);
userData = {
com.schriftgestaltung.Glyphs.lastChange = "2021-09-27 01:28:12 +0000";
};
width = 720;
}
);
unicode = 49;
}
{
color = 9;
glyphname = two;
layers = (
{
background = {
shapes = (
{
pos = (720,0);
ref = S;
scale = (-1,1);
}
);
};
layerId = master01;
shapes = (
{
closed = 1;
nodes = (
(70,184,l),
(70,1,l),
(204,1,l),
(204,97,l),
(204,146,l),
(600,480,ls),
(632,507,o),
(639,536,o),
(639,578,cs),
(639,603,ls),
(639,702,o),
(576,759,o),
(455,759,cs),
(261,759,ls),
(137,759,o),
(75,702,o),
(75,603,cs),
(75,508,l),
(200,508,l),
(200,571,ls),
(200,617,o),
(233,634,o),
(279,634,cs),
(433,634,ls),
(469,634,o),
(514,626,o),
(514,589,cs),
(514,558,o),
(505,550,o),
(485,533,cs)
);
},
{
closed = 1;
nodes = (
(137,0,l),
(637,0,l),
(637,126,l),
(167,126,l)
);
}
);
userData = {
com.schriftgestaltung.Glyphs.lastChange = "2021-09-27 01:26:30 +0000";
};
width = 720;
}
);
unicode = 50;
}
{
color = 9;
glyphname = three;
layers = (
{
background = {
shapes = (
{
pos = (-7,0);
ref = nine;
}
);
};
layerId = master01;
shapes = (
{
closed = 1;
nodes = (
(87,125,l),
(87,-1,l),
(428,0,l),
(572,0,o),
(641,88,o),
(641,196,c),
(641,264,l),
(641,378,o),
(585,428,o),
(456,428,cs),
(377,428,l),
(614,604,l),
(614,755,l),
(84,755,l),
(84,629,l),
(453,629,l),
(453,613,l),
(186,413,l),
(186,329,l),
(424,329,l),
(501,329,o),
(513,303,o),
(513,233,cs),
(513,155,o),
(474,125,o),
(394,125,c)
);
}
);
userData = {
com.schriftgestaltung.Glyphs.lastChange = "2021-09-27 01:24:17 +0000";
};
width = 720;
}
);
unicode = 51;
}
{
glyphname = four;
layers = (
{
layerId = master01;
shapes = (
{
closed = 1;
nodes = (
(347,762,l),
(43,309,l),
(43,169,l),
(444,169,l),
(444,6,l),
(569,6,l),
(569,169,l),
(668,169,l),
(668,289,l),
(569,289,l),
(569,762,l)
);
},
{
closed = 1;
nodes = (
(427,679,l),
(444,679,l),
(444,289,l),
(165,289,l)
);
}
);
userData = {
com.schriftgestaltung.Glyphs.lastChange = "2021-09-27 01:24:58 +0000";
};
width = 720;
}
);
unicode = 52;
}
{
color = 6;
glyphname = five;
layers = (
{
background = {
shapes = (
{
closed = 1;
nodes = (
(418,347,ls),
(493,347,o),
(504,330,o),
(504,262,cs),
(504,231,ls),
(504,148,o),
(483,126,o),
(408,126,cs),
(87,126,l),
(87,0,l),
(383,0,ls),
(578,0,o),
(631,59,o),
(631,229,cs),
(631,292,ls),
(631,409,o),
(568,472,o),
(440,472,cs),
(377,472,ls),
(295,472,o),
(252,426,o),
(262,347,c)
);
}
);
};
guides = (
{
pos = (592,629);
}
);
layerId = master01;
shapes = (
{
closed = 1;
nodes = (
(418,347,ls),
(483,347,o),
(504,330,o),
(504,262,cs),
(504,231,ls),
(504,148,o),
(483,126,o),
(408,126,cs),
(87,126,l),
(87,0,l),
(383,0,ls),
(578,0,o),
(631,59,o),
(631,229,cs),
(631,292,ls),
(631,409,o),
(568,472,o),
(440,472,cs),
(377,472,ls),
(307,472,o),
(266,447,o),
(234,400,c),
(219,400,l),
(219,674,l),
(184,630,l),
(587,630,l),
(587,756,l),
(91,756,l),
(91,346,l)
);
}
);
userData = {
com.schriftgestaltung.Glyphs.lastChange = "2021-09-27 00:16:37 +0000";
};
width = 720;
}
);
unicode = 53;
}
{
color = 9;
glyphname = six;
layers = (
{
background = {
shapes = (
{
pos = (-4,0);
ref = O;
}
);
};
layerId = master01;
shapes = (
{
closed = 1;
nodes = (
(215,250,ls),
(215,327,o),
(250,357,o),
(309,357,cs),
(451,357,ls),
(503,357,o),
(530,326,o),
(530,279,cs),
(530,199,l),
(530,152,o),
(508,125,o),
(457,125,cs),
(295,125,l),
(238,125,o),
(215,152,o),
(215,199,c)
);
},
{
closed = 1;
nodes = (
(87,227,l),
(87,49,o),
(165,0,o),
(378,0,cs),
(586,0,o),
(652,48,o),
(652,245,c),
(652,414,o),
(586,482,o),
(437,482,cs),
(393,482,ls),
(288,482,o),
(252,426,o),
(232,370,c),
(215,370,l),
(215,502,ls),
(215,589,o),
(253,629,o),
(338,629,cs),
(590,629,l),
(590,756,l),
(315,756,l),
(153,756,o),
(87,675,o),
(87,528,cs)
);
}
);
userData = {
com.schriftgestaltung.Glyphs.lastChange = "2021-09-26 22:43:02 +0000";
};
width = 720;
}
);
unicode = 54;
}
{
color = 9;
glyphname = seven;
layers = (
{
layerId = master01;
shapes = (
{
closed = 1;
nodes = (
(294,0,l),
(658,649,l),
(658,756,l),
(87,756,l),
(87,630,l),
(577,630,l),
(527,675,l),
(142,0,l)
);
}
);
userData = {
com.schriftgestaltung.Glyphs.lastChange = "2021-09-27 01:16:58 +0000";
};
width = 720;
}
);
unicode = 55;
}
{
color = 6;
glyphname = eight;
layers = (
{
layerId = master01;
shapes = (
{
closed = 1;
nodes = (
(75,528,l),
(75,442,o),
(113,405,o),
(202,405,c),
(175,451,l),
(175,339,l),
(202,377,l),
(103,377,o),
(62,330,o),
(62,235,cs),
(62,160,ls),
(62,57,o),
(139,0,o),
(276,0,cs),
(449,0,ls),
(582,0,o),
(657,57,o),
(657,160,cs),
(657,235,ls),
(657,340,o),
(614,377,o),
(503,377,c),
(542,339,l),
(542,443,l),
(513,404,l),
(599,404,o),
(640,442,o),
(640,528,cs),
(640,596,ls),
(640,699,o),
(573,756,o),
(454,756,cs),
(261,756,ls),
(142,756,o),
(75,699,o),
(75,596,cs)
);
},
{
closed = 1;
nodes = (
(434,631,l),
(485,631,o),
(508,614,o),
(508,568,c),
(508,515,ls),
(508,468,o),
(485,451,o),
(434,451,cs),
(281,451,l),
(230,451,o),
(207,468,o),
(207,515,c),
(207,567,ls),
(207,614,o),
(230,631,o),
(281,631,c)
);
},
{
closed = 1;
nodes = (
(445,334,ls),
(496,334,o),
(526,316,o),
(525,270,cs),
(524,189,ls),
(523,142,o),
(501,125,o),
(450,125,cs),
(263,125,ls),
(214,125,o),
(198,142,o),
(197,189,cs),
(196,270,ls),
(195,317,o),
(219,334,o),
(270,334,c)
);
}
);
userData = {
com.schriftgestaltung.Glyphs.lastChange = "2021-09-26 23:52:22 +0000";
};
width = 720;
}
);
unicode = 56;
}
{
color = 9;
glyphname = nine;
layers = (
{
background = {
shapes = (
{
pos = (-132,0);
ref = O;
}
);
};
layerId = master01;
shapes = (
{
closed = 1;
nodes = (
(505,472,ls),
(505,407,o),
(471,380,o),
(412,380,cs),
(264,380,ls),
(212,380,o),
(190,407,o),
(190,454,cs),
(189,557,ls),
(189,604,o),
(212,631,o),
(263,631,cs),
(427,631,ls),
(482,631,o),
(505,604,o),
(505,557,c)
);
},
{
closed = 1;
nodes = (
(633,521,l),
(633,691,o),
(554,756,o),
(388,756,cs),
(251,756,ls),
(141,756,o),
(68,697,o),
(68,596,cs),
(68,416,ls),
(68,313,o),
(131,255,o),
(281,255,cs),
(327,255,ls),
(432,255,o),
(468,307,o),
(488,363,c),
(505,363,l),
(505,254,ls),
(505,160,o),
(455,127,o),
(369,127,cs),
(114,127,l),
(114,0,l),
(423,0,ls),
(565,0,o),
(633,88,o),
(633,230,cs)
);
}
);
userData = {
com.schriftgestaltung.Glyphs.lastChange = "2021-09-26 22:38:38 +0000";
};
width = 720;
}
);
unicode = 57;
}
{
glyphname = colon;
layers = (
{
layerId = master01;
shapes = (
{
closed = 1;
nodes = (
(195,0,l),
(195,145,l),
(50,145,l),
(50,0,l)
);
},
{
closed = 1;
nodes = (
(50,411,l),
(195,411,l),
(195,557,l),
(50,557,l)
);
}
);
userData = {
com.schriftgestaltung.Glyphs.lastChange = "2021-09-28 04:54:42 +0000";
};
width = 245;
}
);
unicode = 58;
}
{
glyphname = question;
layers = (
{
layerId = master01;
shapes = (
{
closed = 1;
nodes = (
(215,452,l),
(145,452,o),
(109,423,o),
(109,356,cs),
(109,324,o),
(109,227,o),
(109,204,c),
(231,204,l),
(231,244,o),
(231,271,o),
(231,296,cs),
(231,321,o),
(243,332,o),
(271,332,cs),
(421,333,ls),
(497,334,o),
(530,373,o),
(530,443,cs),
(530,595,ls),
(530,671,o),
(497,704,o),
(421,704,cs),
(107,704,l),
(107,579,l),
(371,579,ls),
(398,579,o),
(410,561,o),
(410,541,cs),
(410,521,o),
(410,508,o),
(410,495,cs),
(410,465,o),
(398,452,o),
(371,452,cs)
);
},
{
closed = 1;
nodes = (
(236,0,l),
(236,129,l),
(107,129,l),
(107,0,l)
);
}
);
userData = {
com.schriftgestaltung.Glyphs.lastChange = "2021-09-28 05:04:18 +0000";
};
width = 570;
}
);
unicode = 63;
}
{
glyphname = at;
layers = (
{
layerId = master01;
shapes = (
{
closed = 1;
nodes = (
(382,419,o),
(401,444,o),
(457,444,c),
(585,444,l),
(614,561,l),
(614,561,o),
(563,561,o),
(434,561,cs),
(304,561,o),
(262,486,o),
(262,379,cs),
(262,259,ls),
(262,134,o),
(320,78,o),
(424,80,c),
(454,80,l),
(550,80,o),
(558,132,o),
(577,207,c),
(590,207,l),
(578,306,l),
(578,216,o),
(567,204,o),
(492,204,cs),
(457,204,ls),
(401,204,o),
(382,223,o),
(382,284,cs),
(382,305,o),
(382,327,o),
(382,359,cs)
);
},
{
closed = 1;
nodes = (
(75,122,l),
(75,-37,o),
(138,-108,o),
(268,-108,cs),
(534,-108,l),
(534,15,l),
(313,15,ls),
(236,15,o),
(199,37,o),
(199,141,cs),
(199,507,ls),
(199,612,o),
(237,634,o),
(314,634,cs),
(675,634,ls),
(752,634,o),
(789,612,o),
(789,507,cs),
(789,291,ls),
(789,216,o),
(767,208,o),
(718,208,cs),
(696,208,l),
(696,562,l),
(578,561,l),
(578,284,l),
(590,206,ls),
(604,116,o),
(635,81,o),
(699,81,cs),
(763,81,ls),
(859,81,o),
(913,174,o),
(913,309,cs),
(913,526,ls),
(913,645,o),
(850,756,o),
(720,756,cs),
(268,756,ls),
(163,756,o),
(75,663,o),
(75,528,cs)
);
}
);
userData = {
com.schriftgestaltung.Glyphs.lastChange = "2021-09-28 04:46:49 +0000";
};
width = 977;
}
);
unicode = 64;
}
{
glyphname = A;
layers = (
{
anchors = (
{
name = bottom;
pos = (375,0);
},
{
name = ogonek;
pos = (666,10);
},
{
name = top;
pos = (377,756);
}
);
layerId = master01;
shapes = (
{
closed = 1;
nodes = (
(163,0,l),
(373,673,l),
(316,630,l),
(433,630,l),
(373,673,l),
(581,0,l),
(722,0,l),
(480,756,l),
(274,756,l),
(27,0,l)
);
},
{
closed = 1;
nodes = (
(202,191,l),
(539,191,l),
(539,315,l),
(202,315,l)
);
}
);
userData = {
com.schriftgestaltung.Glyphs.lastChange = "2021-09-27 06:34:19 +0000";
};
width = 749;
}
);
metricLeft = V;
metricRight = V;
unicode = 65;
}
{
glyphname = B;
layers = (
{
guides = (
{
pos = (-253,0);
}
);
layerId = master01;
shapes = (
{
closed = 1;
nodes = (
(561,410,l),
(646,410,o),
(683,467,o),
(683,571,cs),
(683,678,o),
(633,756,o),
(494,756,cs),
(197,756,l),
(197,629,l),
(459,629,l),
(522,629,o),
(561,606,o),
(561,540,cs),
(561,474,o),
(514,451,o),
(463,451,c),
(163,451,l),
(163,330,l),
(486,330,l),
(562,329,o),
(585,287,o),
(585,229,cs),
(585,153,o),
(548,128,o),
(484,128,cs),
(185,128,l),
(186,0,l),
(494,0,ls),
(630,0,o),
(710,48,o),
(710,205,cs),
(710,324,o),
(664,388,o),
(561,388,c)
);
},
{
closed = 1;
nodes = (
(241,756,l),
(114,756,l),
(114,0,l),
(241,0,l)
);
}
);
userData = {
com.schriftgestaltung.Glyphs.lastChange = "2021-09-27 06:30:33 +0000";
};
width = 792;
}
);
metricLeft = H;
unicode = 66;
}
{
color = 6;
glyphname = C;
layers = (
{
layerId = master01;
shapes = (
{
closed = 1;
nodes = (
(223,253,l),
(223,168,o),
(258,131,o),
(346,131,cs),
(634,131,l),
(634,0,l),
(297,0,ls),
(158,0,o),
(92,82,o),
(92,230,c),
(92,528,l),
(92,676,o),
(157,756,o),
(297,756,cs),
(634,756,l),
(634,625,l),
(345,625,ls),
(259,625,o),
(223,588,o),
(223,503,cs)
);
}
);
userData = {
com.schriftgestaltung.Glyphs.lastChange = "2021-09-24 04:58:47 +0000";
};
width = 703;
}
);
metricLeft = O;
unicode = 67;
}
{
color = 6;
glyphname = D;
layers = (
{
background = {
anchors = (
{
name = bottom;
pos = (412,0);
},
{
name = center;
pos = (412,378);
},
{
name = ogonek;
pos = (754,10);
},
{
name = top;
pos = (412,756);
},
{
name = topleft;
pos = (5,756);
},
{
name = topright;
pos = (819,756);
}
);
shapes = (
{
closed = 1;
nodes = (
(725,528,l),
(725,675,o),
(661,758,o),
(525,758,cs),
(248,758,ls),
(112,758,o),
(47,675,o),
(47,528,cs),
(47,228,ls),
(47,81,o),
(112,-2,o),
(248,-2,cs),
(524,-2,ls),
(661,-2,o),
(725,81,o),
(725,228,cs)
);
},
{
closed = 1;
nodes = (
(296,127,l),
(210,127,o),
(175,164,o),
(175,249,cs),
(175,507,ls),
(175,592,o),
(210,629,o),
(296,629,cs),
(476,629,ls),
(562,629,o),
(597,592,o),
(597,507,cs),
(597,249,ls),
(597,164,o),
(562,127,o),
(476,127,cs)
);
}
);
};
layerId = master01;
shapes = (
{
closed = 1;
nodes = (
(523,3,ls),
(663,3,o),
(725,76,o),
(725,234,cs),
(725,528,ls),
(725,686,o),
(663,759,o),
(523,759,cs),
(114,759,l),
(114,3,l)
);
},
{
closed = 1;
nodes = (
(560,629,o),
(597,592,o),
(597,520,cs),
(597,242,ls),
(597,164,o),
(560,133,o),
(476,133,cs),
(242,133,l),
(242,629,l),
(476,629,l)
);
}
);
userData = {
com.schriftgestaltung.Glyphs.lastChange = "2021-09-24 01:53:12 +0000";
};
width = 817;
}
);
metricLeft = H;
metricRight = O;
unicode = 68;
}
{
glyphname = E;
layers = (
{
anchors = (
{
name = bottom;
pos = (364,0);
},
{
name = ogonek;
pos = (654,10);
},
{
name = top;
pos = (383,756);
},
{
name = topleft;
pos = (20,756);
}
);
layerId = master01;
shapes = (
{
closed = 1;
nodes = (
(244,756,l),
(114,756,l),
(114,0,l),
(244,0,l)
);
},
{
closed = 1;
nodes = (
(194,127,l),
(194,0,l),
(656,0,l),
(656,127,l)
);
},
{
closed = 1;
nodes = (
(578,322,l),
(578,449,l),
(198,449,l),
(198,322,l)
);
},
{
closed = 1;
nodes = (
(656,629,l),
(656,756,l),
(184,756,l),
(184,629,l)
);
}
);
userData = {
com.schriftgestaltung.Glyphs.lastChange = "2021-09-27 06:32:11 +0000";
};
width = 727;
}
);
metricLeft = H;
unicode = 69;
}
{
glyphname = F;
layers = (
{
layerId = master01;
shapes = (
{
closed = 1;
nodes = (
(114,756,l),
(114,0,l),
(246,0,l),
(246,756,l)
);
},
{
closed = 1;
nodes = (
(636,756,l),
(246,756,l),
(246,629,l),
(636,629,l)
);
},
{
closed = 1;
nodes = (
(246,294,l),
(561,294,l),
(561,421,l),
(246,421,l)
);
}
);
userData = {
com.schriftgestaltung.Glyphs.lastChange = "2021-09-24 01:58:49 +0000";
};
width = 702;
}
);
metricLeft = H;
unicode = 70;
}
{
color = 6;
glyphname = G;
layers = (
{
guides = (
{
pos = (-450,0);
}
);
layerId = master01;
shapes = (
{
closed = 1;
nodes = (
(589,141,o),
(548,127,o),
(477,127,c),
(344,127,ls),
(269,127,o),
(228,147,o),
(228,247,c),
(228,507,ls),
(228,607,o),
(268,629,o),
(343,629,cs),
(687,629,l),
(687,756,l),
(295,756,ls),
(185,756,o),
(92,663,o),
(92,528,c),
(92,230,l),
(92,71,o),
(159,0,o),
(295,0,cs),
(423,0,ls),
(531,0,o),
(586,39,o),
(597,124,c),
(615,124,l),
(614,0,l),
(719,0,l),
(719,429,l),
(424,429,l),
(424,309,l),
(589,309,l),
(589,229,l)
);
}
);
userData = {
com.schriftgestaltung.Glyphs.lastChange = "2021-09-24 04:51:40 +0000";
};
width = 800;
}
);
metricLeft = O;
unicode = 71;
}
{
color = 9;
glyphname = H;
layers = (
{
layerId = master01;
shapes = (
{
closed = 1;
nodes = (
(114,756,l),
(114,0,l),
(242,0,l),
(242,756,l)
);
},
{
closed = 1;
nodes = (
(597,756,l),
(597,0,l),
(725,0,l),
(725,756,l)
);
},
{
closed = 1;
nodes = (
(198,322,l),
(636,322,l),
(636,448,l),
(198,448,l)
);
}
);
userData = {
com.schriftgestaltung.Glyphs.lastChange = "2021-09-24 01:54:42 +0000";
};
width = 839;
}
);
metricRight = "=|H";
unicode = 72;
}
{
color = 4;
glyphname = I;
layers = (
{
anchors = (
{
name = bottom;
pos = (337,0);
},
{
name = ogonek;
pos = (607,10);
},
{
name = top;
pos = (337,756);
},
{
name = topleft;
pos = (20,756);
}
);
layerId = master01;
shapes = (
{
closed = 1;
nodes = (
(85,755,l),
(85,630,l),
(316,630,l),
(272,673,l),
(272,82,l),
(316,125,l),
(85,125,l),
(85,0,l),
(589,0,l),
(589,125,l),
(356,125,l),
(400,82,l),
(400,673,l),
(356,630,l),
(589,630,l),
(589,755,l)
);
}
);
userData = {
com.schriftgestaltung.Glyphs.lastChange = "2021-09-27 05:59:53 +0000";
};
width = 674;
}
);
unicode = 73;
}
{
glyphname = J;
layers = (
{
layerId = master01;
shapes = (
{
closed = 1;
nodes = (
(474,756,l),
(111,756,l),
(111,629,l),
(389,629,l),
(344,680,l),
(344,199,ls),
(344,149,o),
(322,127,o),
(273,127,cs),
(53,127,l),
(53,0,l),
(317,0,ls),
(426,0,o),
(474,54,o),
(474,176,cs)
);
}
);
userData = {
com.schriftgestaltung.Glyphs.lastChange = "2021-09-24 02:03:29 +0000";
};
width = 588;
}
);
metricRight = H;
unicode = 74;
}
{
glyphname = K;
layers = (
{
layerId = master01;
shapes = (
{
closed = 1;
nodes = (
(245,0,l),
(245,322,l),
(362,322,l),
(573,-1,l),
(739,-1,l),
(446,429,l),
(444,352,l),
(709,756,l),
(551,756,l),
(360,450,l),
(245,450,l),
(245,756,l),
(114,756,l),
(114,0,l)
);
}
);
userData = {
com.schriftgestaltung.Glyphs.lastChange = "2021-09-24 04:47:01 +0000";
};
width = 747;
}
);
metricLeft = H;
unicode = 75;
}
{
glyphname = L;
layers = (
{
layerId = master01;
shapes = (
{
closed = 1;
nodes = (
(587,0,l),
(587,127,l),
(204,127,l),
(248,82,l),
(248,756,l),
(114,756,l),
(114,0,l)
);
}
);
userData = {
com.schriftgestaltung.Glyphs.lastChange = "2021-09-24 04:50:51 +0000";
};
width = 609;
}
);
metricLeft = H;
unicode = 76;
}
{
glyphname = M;
layers = (
{
guides = (
{
angle = 90;
pos = (911,263);
},
{
angle = 90;
pos = (95,481);
}
);
layerId = master01;
shapes = (
{
closed = 1;
nodes = (
(206,-1,l),
(245,675,l),
(200,630,l),
(299,630,l),
(239,674,l),
(398,43,l),
(600,43,l),
(744,674,l),
(689,630,l),
(787,630,l),
(749,675,l),
(788,0,l),
(913,0,l),
(872,756,l),
(662,756,l),
(504,133,l),
(560,177,l),
(453,177,l),
(510,134,l),
(344,756,l),
(134,756,l),
(92,-1,l)
);
}
);
userData = {
com.schriftgestaltung.Glyphs.lastChange = "2021-09-27 06:35:49 +0000";
};
width = 1005;
}
);
unicode = 77;
}
{
color = 9;
glyphname = N;
layers = (
{
anchors = (
{
name = bottom;
pos = (408,0);
},
{
name = top;
pos = (422,756);
}
);
layerId = master01;
shapes = (
{
closed = 1;
nodes = (
(234,0,l),
(236,678,l),
(217,674,l),
(528,0,l),
(729,0,l),
(729,756,l),
(608,756,l),
(608,79,l),
(627,83,l),
(317,756,l),
(114,756,l),
(114,0,l)
);
}
);
userData = {
com.schriftgestaltung.Glyphs.lastChange = "2021-09-24 01:33:27 +0000";
};
width = 843;
}
);
metricLeft = H;
metricRight = H;
unicode = 78;
}
{
color = 6;
glyphname = O;
layers = (
{
anchors = (
{
name = top;
pos = (427,756);
}
);
layerId = master01;
shapes = (
{
closed = 1;
nodes = (
(762,528,l),
(762,675,o),
(698,758,o),
(562,758,cs),
(293,758,ls),
(157,758,o),
(92,675,o),
(92,528,cs),
(92,228,ls),
(92,81,o),
(157,-2,o),
(293,-2,cs),
(561,-2,ls),
(698,-2,o),
(762,81,o),
(762,228,cs)
);
},
{
closed = 1;
nodes = (
(341,127,l),
(257,127,o),
(222,164,o),
(222,249,cs),
(222,507,ls),
(222,592,o),
(257,629,o),
(341,629,cs),
(513,629,ls),
(597,629,o),
(632,592,o),
(632,507,cs),
(632,249,ls),
(632,164,o),
(597,127,o),
(513,127,cs)
);
}
);
userData = {
com.schriftgestaltung.Glyphs.lastChange = "2021-09-27 05:29:31 +0000";
};
width = 854;
}
);
metricRight = "=|O";
unicode = 79;
}
{
glyphname = P;
layers = (
{
layerId = master01;
shapes = (
{
closed = 1;
nodes = (
(242,629,l),
(448,629,ls),
(523,629,o),
(549,594,o),
(549,512,cs),
(549,423,o),
(519,381,o),
(448,381,cs),
(230,381,l),
(230,255,l),
(464,255,ls),
(611,255,o),
(675,312,o),
(675,455,cs),
(675,583,ls),
(675,703,o),
(614,756,o),
(464,756,cs),
(114,756,l),
(114,0,l),
(242,0,l)
);
}
);
userData = {
com.schriftgestaltung.Glyphs.lastChange = "2021-09-27 06:28:26 +0000";
};
width = 726;
}
);
metricLeft = H;
unicode = 80;
}
{
color = 6;
glyphname = Q;
layers = (
{
layerId = master01;
shapes = (
{
closed = 1;
nodes = (
(420,94,l),
(569,-137,l),
(716,-137,l),
(569,94,l)
);
},
{
ref = O;
}
);
userData = {
com.schriftgestaltung.Glyphs.lastChange = "2021-09-24 06:04:12 +0000";
};
width = 854;
}
);
metricLeft = O;
metricRight = O;
unicode = 81;
}
{
glyphname = R;
layers = (
{
layerId = master01;
shapes = (
{
closed = 1;
nodes = (
(244,0,l),
(244,756,l),
(114,756,l),
(114,0,l)
);
},
{
closed = 1;
nodes = (
(548,320,l),
(564,320,l),
(648,320,o),
(699,378,o),
(699,488,cs),
(699,601,ls),
(699,709,o),
(658,756,o),
(512,756,cs),
(199,756,l),
(199,629,l),
(484,629,l),
(559,629,o),
(573,592,o),
(573,541,cs),
(573,447,o),
(540,428,o),
(460,428,c),
(232,428,l),
(232,301,l),
(408,301,l),
(573,0,l),
(573,0,o),
(728,-1,o),
(728,-1,c)
);
}
);
userData = {
com.schriftgestaltung.Glyphs.lastChange = "2021-09-24 05:01:30 +0000";
};
width = 795;
}
);
metricLeft = H;
unicode = 82;
}
{
glyphname = S;
layers = (
{
guides = (
{
pos = (-850,0);
},
{
pos = (-923,0);
},
{
pos = (-944,0);
}
);
layerId = master01;
shapes = (
{
closed = 1;
nodes = (
(68,533,ls),
(68,404,o),
(144,366,o),
(206,355,cs),
(418,317,ls),
(490,304,o),
(502,288,o),
(502,216,cs),
(502,142,o),
(486,127,o),
(414,127,cs),
(76,127,l),
(76,0,l),
(443,0,ls),
(564,0,o),
(641,72,o),
(641,213,cs),
(641,264,ls),
(641,390,o),
(564,428,o),
(501,439,cs),
(286,477,ls),
(216,489,o),
(207,509,o),
(207,560,cs),
(207,614,o),
(223,629,o),
(283,629,cs),
(599,629,l),
(599,756,l),
(249,756,ls),
(144,756,o),
(68,680,o),
(68,583,cs)
);
}
);
userData = {
com.schriftgestaltung.Glyphs.lastChange = "2021-09-24 06:08:50 +0000";
};
width = 714;
}
);
unicode = 83;
}
{
glyphname = T;
layers = (
{
layerId = master01;
shapes = (
{
closed = 1;
nodes = (
(260,0,l),
(392,0,l),
(392,756,l),
(260,756,l)
);
},
{
closed = 1;
nodes = (
(634,756,l),
(391,756,l),
(391,628,l),
(634,628,l)
);
},
{
closed = 1;
nodes = (
(261,756,l),
(19,756,l),
(19,628,l),
(261,628,l)
);
}
);
userData = {
com.schriftgestaltung.Glyphs.lastChange = "2021-09-24 05:08:08 +0000";
};
width = 653;
}
);
unicode = 84;
}
{
color = 4;
glyphname = U;
layers = (
{
anchors = (
{
name = bottom;
pos = (388,0);
},
{
name = ogonek;
pos = (698,10);
},
{
name = top;
pos = (388,756);
},
{
name = topright;
pos = (755,756);
}
);
layerId = master01;
shapes = (
{
closed = 1;
nodes = (
(689,756,l),
(559,756,l),
(561,246,ls),
(561,165,o),
(528,127,o),
(444,127,cs),
(333,127,ls),
(248,127,o),
(215,165,o),
(215,246,cs),
(215,756,l),
(86,756,l),
(86,235,ls),
(86,71,o),
(161,-4,o),
(341,-4,cs),
(350,-4,o),
(415,-4,o),
(427,-4,cs),
(611,-4,o),
(689,71,o),
(689,235,cs)
);
}
);
userData = {
com.schriftgestaltung.Glyphs.lastChange = "2021-09-27 05:59:37 +0000";
};
width = 775;
}
);
unicode = 85;
}
{
color = 4;
glyphname = V;
layers = (
{
layerId = master01;
shapes = (
{
closed = 1;
nodes = (
(269,0,l),
(480,0,l),
(722,756,l),
(584,756,l),
(378,83,l),
(428,119,l),
(316,119,l),
(380,83,l),
(170,756,l),
(27,756,l)
);
}
);
userData = {
com.schriftgestaltung.Glyphs.lastChange = "2021-09-27 06:34:58 +0000";
};
width = 749;
}
);
unicode = 86;
}
{
glyphname = W;
layers = (
{
guides = (
{
pos = (26,546);
},
{
pos = (26,144);
},
{
angle = 90;
pos = (974,595);
},
{
angle = 90;
pos = (49,733);
}
);
layerId = master01;
shapes = (
{
closed = 1;
nodes = (
(862,757,l),
(758,81,l),
(795,126,l),
(696,126,l),
(757,82,l),
(614,733,l),
(423,733,l),
(284,82,l),
(341,126,l),
(240,126,l),
(279,81,l),
(175,756,l),
(46,756,l),
(160,0,l),
(378,0,l),
(513,643,l),
(457,599,l),
(564,599,l),
(504,642,l),
(645,0,l),
(863,0,l),
(979,757,l)
);
}
);
userData = {
com.schriftgestaltung.Glyphs.lastChange = "2021-09-27 06:35:43 +0000";
};
width = 1025;
}
);
unicode = 87;
}
{
glyphname = X;
layers = (
{
guides = (
{
pos = (-1212,0);
},
{
pos = (-1273,0);
}
);
layerId = master01;
shapes = (
{
closed = 1;
nodes = (
(161,0,l),
(330,306,l),
(364,306,l),
(523,0,l),
(680,0,l),
(450,426,l),
(455,329,l),
(678,756,l),
(532,756,l),
(363,434,l),
(332,434,l),
(174,756,l),
(18,756,l),
(230,329,l),
(244,426,l),
(14,0,l)
);
}
);
userData = {
com.schriftgestaltung.Glyphs.lastChange = "2021-09-24 05:35:51 +0000";
};
width = 694;
}
);
unicode = 88;
}
{
glyphname = Y;
layers = (
{
guides = (
{
pos = (0,273);
}
);
layerId = master01;
shapes = (
{
closed = 1;
nodes = (
(263,232,l),
(252,317,l),
(252,0,l),
(382,0,l),
(382,317,l),
(361,211,l),
(642,756,l),
(496,756,l),
(305,354,l),
(379,405,l),
(262,405,l),
(336,354,l),
(138,756,l),
(-18,756,l)
);
}
);
userData = {
com.schriftgestaltung.Glyphs.lastChange = "2021-09-14 06:12:07 +0000";
};
width = 633;
}
);
unicode = 89;
}
{
glyphname = Z;
layers = (
{
layerId = master01;
shapes = (
{
closed = 1;
nodes = (
(625,130,l),
(213,130,l),
(213,158,l),
(625,556,l),
(625,754,l),
(103,754,l),
(103,624,l),
(490,624,l),
(490,593,l),
(77,203,l),
(77,0,l),
(625,0,l)
);
}
);
userData = {
com.schriftgestaltung.Glyphs.lastChange = "2021-09-24 05:46:05 +0000";
};
width = 697;
}
);
unicode = 90;
}
{
glyphname = bracketleft;
layers = (
{
layerId = master01;
shapes = (
{
closed = 1;
nodes = (
(106,776,l),
(106,-147,l),
(236,-147,l),
(236,776,l)
);
},
{
closed = 1;
nodes = (
(106,663,l),
(316,663,l),
(316,776,l),
(106,776,l)
);
},
{
closed = 1;
nodes = (
(106,-147,l),
(316,-147,l),
(316,-34,l),
(106,-34,l)
);
}
);
userData = {
com.schriftgestaltung.Glyphs.lastChange = "2021-09-28 05:11:53 +0000";
};
width = 399;
}
);
unicode = 91;
}
{
glyphname = backslash;
layers = (
{
layerId = master01;
shapes = (
{
closed = 1;
nodes = (
(77,756,l),
(309,-148,l),
(435,-148,l),
(203,756,l)
);
}
);
userData = {
com.schriftgestaltung.Glyphs.lastChange = "2021-09-28 05:27:31 +0000";
};
width = 476;
}
);
unicode = 92;
}
{
glyphname = bracketright;
layers = (
{
guides = (
{
angle = 90;
pos = (289,97);
}
);
layerId = master01;
shapes = (
{
closed = 1;
nodes = (
(163,-147,l),
(289,-147,l),
(289,775,l),
(163,775,l)
);
},
{
closed = 1;
nodes = (
(83,775,l),
(83,662,l),
(289,662,l),
(289,775,l)
);
},
{
closed = 1;
nodes = (
(83,-34,l),
(83,-147,l),
(289,-147,l),
(289,-34,l)
);
}
);
userData = {
com.schriftgestaltung.Glyphs.lastChange = "2021-09-28 05:12:05 +0000";
};
width = 395;
}
);
unicode = 93;
}
{
glyphname = underscore;
layers = (
{
layerId = master01;
shapes = (
{
closed = 1;
nodes = (
(497,-166,l),
(497,-37,l),
(50,-37,l),
(50,-166,l)
);
}
);
userData = {
com.schriftgestaltung.Glyphs.lastChange = "2021-09-26 14:16:57 +0000";
};
width = 547;
}
);
unicode = 95;
}
{
glyphname = a;
layers = (
{
anchors = (
{
name = bottom;
pos = (322,0);
},
{
name = ogonek;
pos = (580,10);
},
{
name = top;
pos = (342,556);
}
);
layerId = master01;
shapes = (
{
closed = 1;
nodes = (
(442,284,l),
(564,284,l),
(564,396,ls),
(564,500,o),
(508,563,o),
(404,563,cs),
(104,563,l),
(104,441,l),
(382,441,ls),
(421,441,o),
(442,420,o),
(442,379,cs)
);
},
{
closed = 1;
nodes = (
(564,0,l),
(564,284,l),
(442,284,l),
(443,195,l),
(459,125,l),
(460,0,l)
);
},
{
closed = 1;
nodes = (
(202,336,ls),
(118,336,o),
(72,290,o),
(72,206,cs),
(72,156,ls),
(72,52,o),
(128,-4,o),
(232,-4,cs),
(287,-4,ls),
(375,-4,o),
(424,44,o),
(442,113,c),
(525,113,l),
(443,212,l),
(443,122,o),
(394,113,o),
(349,113,cs),
(247,113,ls),
(208,113,o),
(187,134,o),
(187,171,cs),
(187,208,o),
(208,229,o),
(247,229,cs),
(465,229,l),
(465,336,l)
);
}
);
userData = {
com.schriftgestaltung.Glyphs.lastChange = "2021-09-27 05:55:15 +0000";
};
width = 644;
}
);
metricRight = n;
unicode = 97;
}
{
color = 4;
glyphname = b;
layers = (
{
guides = (
{
pos = (-469,0);
}
);
layerId = master01;
shapes = (
{
closed = 1;
nodes = (
(180,117,l),
(180,1,l),
(410,0,ls),
(568,-1,o),
(604,79,o),
(604,245,cs),
(604,371,ls),
(604,516,o),
(555,560,o),
(444,560,cs),
(383,560,ls),
(303,560,o),
(242,521,o),
(228,429,c),
(178,429,l),
(224,340,l),
(224,396,o),
(261,437,o),
(315,437,cs),
(403,437,ls),
(468,437,o),
(484,413,o),
(484,354,cs),
(484,193,ls),
(484,134,o),
(464,117,o),
(402,117,cs)
);
},
{
closed = 1;
nodes = (
(97,1,l),
(224,1,l),
(224,355,l),
(211,433,l),
(211,778,l),
(97,778,l)
);
}
);
userData = {
com.schriftgestaltung.Glyphs.lastChange = "2021-09-23 22:25:15 +0000";
};
width = 679;
}
);
metricLeft = l;
unicode = 98;
}
{
color = 6;
glyphname = c;
layers = (
{
layerId = master01;
shapes = (
{
closed = 1;
nodes = (
(528,119,l),
(528,-3,l),
(271,-3,ls),
(144,-3,o),
(68,86,o),
(68,226,cs),
(68,333,ls),
(68,475,o),
(158,559,o),
(300,559,cs),
(529,559,l),
(529,435,l),
(304,435,ls),
(230,435,o),
(197,405,o),
(197,340,cs),
(197,221,ls),
(197,149,o),
(230,119,o),
(304,119,cs)
);
}
);
userData = {
com.schriftgestaltung.Glyphs.lastChange = "2021-09-23 21:41:30 +0000";
};
width = 587;
}
);
metricLeft = o;
unicode = 99;
}
{
color = 4;
glyphname = d;
layers = (
{
guides = (
{
pos = (-2621,0);
},
{
pos = (27,1513);
}
);
layerId = master01;
shapes = (
{
closed = 1;
nodes = (
(465,778,l),
(465,172,l),
(470,125,l),
(485,0,l),
(594,0,l),
(594,778,l)
);
},
{
closed = 1;
nodes = (
(196,358,l),
(196,414,o),
(229,440,o),
(285,440,cs),
(465,439,l),
(505,557,l),
(257,557,l),
(137,557,o),
(74,481,o),
(74,344,c),
(74,212,l),
(74,70,o),
(137,-6,o),
(239,-6,c),
(330,-7,l),
(415,-7,o),
(444,48,o),
(452,110,c),
(534,110,l),
(465,221,l),
(465,131,o),
(426,118,o),
(359,119,cs),
(286,120,ls),
(230,121,o),
(196,146,o),
(196,202,c)
);
}
);
userData = {
com.schriftgestaltung.Glyphs.lastChange = "2021-09-23 22:32:18 +0000";
};
width = 691;
}
);
metricRight = l;
unicode = 100;
}
{
color = 6;
glyphname = e;
layers = (
{
anchors = (
{
name = bottom;
pos = (331,0);
},
{
name = ogonek;
pos = (595,10);
},
{
name = top;
pos = (334,556);
}
);
layerId = master01;
shapes = (
{
closed = 1;
nodes = (
(550,-3,l),
(550,116,l),
(302,116,ls),
(223,116,o),
(190,146,o),
(190,222,c),
(196,341,l),
(196,413,o),
(229,449,o),
(298,449,cs),
(371,449,ls),
(444,449,o),
(477,413,o),
(477,341,cs),
(477,306,l),
(600,221,l),
(600,337,ls),
(600,503,o),
(517,566,o),
(385,566,cs),
(297,566,ls),
(158,566,o),
(68,474,o),
(68,333,cs),
(68,226,ls),
(68,86,o),
(144,-3,o),
(269,-3,cs)
);
},
{
closed = 1;
nodes = (
(600,221,l),
(600,320,l),
(88,315,l),
(88,221,l)
);
}
);
userData = {
com.schriftgestaltung.Glyphs.lastChange = "2021-09-27 05:58:46 +0000";
};
width = 661;
}
);
metricLeft = o;
unicode = 101;
}
{
glyphname = f;
layers = (
{
layerId = master01;
shapes = (
{
closed = 1;
nodes = (
(125,0,l),
(248,0,l),
(248,596,ls),
(248,635,o),
(269,656,o),
(311,656,cs),
(441,656,l),
(441,778,l),
(285,778,ls),
(181,778,o),
(125,722,o),
(125,618,cs)
);
},
{
closed = 1;
nodes = (
(44,433,l),
(423,433,l),
(423,554,l),
(44,554,l)
);
}
);
userData = {
com.schriftgestaltung.Glyphs.lastChange = "2021-09-23 22:05:26 +0000";
};
width = 449;
}
);
unicode = 102;
}
{
glyphname = g;
layers = (
{
layerId = master01;
shapes = (
{
closed = 1;
nodes = (
(300,157,l),
(392,157,ls),
(506,157,o),
(568,215,o),
(568,337,cs),
(568,629,l),
(459,629,l),
(461,402,l),
(484,487,l),
(443,487,l),
(443,545,o),
(400,566,o),
(330,566,cs),
(241,566,ls),
(112,566,o),
(63,517,o),
(63,388,cs),
(63,350,ls),
(63,226,o),
(128,185,o),
(300,183,c)
);
},
{
closed = 1;
nodes = (
(432,-21,ls),
(458,-21,o),
(472,-34,o),
(472,-65,cs),
(472,-93,o),
(458,-106,o),
(432,-106,cs),
(94,-106,l),
(94,-212,l),
(462,-212,ls),
(538,-212,o),
(571,-179,o),
(571,-101,cs),
(571,-20,ls),
(571,50,o),
(538,80,o),
(462,80,cs),
(245,81,ls),
(217,81,o),
(205,92,o),
(205,117,cs),
(205,140,o),
(217,157,o),
(244,157,cs),
(328,157,l),
(320,209,l),
(211,211,l),
(211,179,l),
(189,179,l),
(119,179,o),
(87,132,o),
(87,70,cs),
(87,8,o),
(119,-21,o),
(189,-21,cs)
);
},
{
closed = 1;
nodes = (
(187,394,ls),
(187,433,o),
(207,454,o),
(246,454,cs),
(380,454,ls),
(423,454,o),
(444,433,o),
(444,394,cs),
(444,329,ls),
(444,290,o),
(423,269,o),
(380,269,cs),
(246,269,ls),
(207,269,o),
(187,290,o),
(187,329,cs)
);
}
);
userData = {
com.schriftgestaltung.Glyphs.lastChange = "2021-09-24 01:51:58 +0000";
};
width = 630;
}
);
unicode = 103;
}
{
color = 9;
glyphname = h;
layers = (
{
layerId = master01;
shapes = (
{
closed = 1;
nodes = (
(97,0,l),
(223,0,l),
(223,362,l),
(210,432,l),
(209,778,l),
(97,778,l)
);
},
{
closed = 1;
nodes = (
(448,436,o),
(482,402,o),
(482,323,cs),
(482,0,l),
(605,0,l),
(605,380,ls),
(605,498,o),
(547,559,o),
(426,559,cs),
(384,559,ls),
(286,559,o),
(250,507,o),
(230,432,c),
(207,432,l),
(223,333,l),
(223,423,o),
(297,436,o),
(378,436,cs)
);
}
);
userData = {
com.schriftgestaltung.Glyphs.lastChange = "2021-09-23 22:47:05 +0000";
};
width = 685;
}
);
metricLeft = l;
metricRight = n;
unicode = 104;
}
{
glyphname = i;
layers = (
{
layerId = master01;
shapes = (
{
closed = 1;
nodes = (
(91,0,l),
(217,0,l),
(217,556,l),
(91,556,l)
);
},
{
closed = 1;
nodes = (
(90,652,l),
(218,652,l),
(218,778,l),
(90,778,l)
);
}
);
userData = {
com.schriftgestaltung.Glyphs.lastChange = "2021-09-28 04:58:06 +0000";
};
width = 308;
}
);
unicode = 105;
}
{
glyphname = j;
layers = (
{
layerId = master01;
shapes = (
{
closed = 1;
nodes = (
(110,652,l),
(238,652,l),
(238,778,l),
(110,778,l)
);
},
{
closed = 1;
nodes = (
(238,556,l),
(115,556,l),
(115,-29,ls),
(115,-68,o),
(94,-89,o),
(52,-89,cs),
(-40,-89,l),
(-40,-213,l),
(78,-213,ls),
(182,-213,o),
(238,-156,o),
(238,-59,cs)
);
}
);
userData = {
com.schriftgestaltung.Glyphs.lastChange = "2021-09-23 22:19:29 +0000";
};
width = 328;
}
);
unicode = 106;
}
{
glyphname = k;
layers = (
{
layerId = master01;
shapes = (
{
closed = 1;
nodes = (
(222,0,l),
(222,240,l),
(310,240,l),
(480,0,l),
(623,0,l),
(373,350,l),
(372,279,l),
(594,556,l),
(449,556,l),
(301,364,l),
(222,364,l),
(222,778,l),
(97,778,l),
(97,0,l)
);
}
);
userData = {
com.schriftgestaltung.Glyphs.lastChange = "2021-09-24 02:17:29 +0000";
};
width = 634;
}
);
metricLeft = l;
unicode = 107;
}
{
glyphname = l;
layers = (
{
layerId = master01;
shapes = (
{
closed = 1;
nodes = (
(97,0,l),
(223,0,l),
(223,778,l),
(97,778,l)
);
}
);
userData = {
com.schriftgestaltung.Glyphs.lastChange = "2021-09-23 22:08:53 +0000";
};
width = 320;
}
);
metricRight = "=|l";
unicode = 108;
}
{
color = 9;
glyphname = m;
layers = (
{
layerId = master01;
shapes = (
{
closed = 1;
nodes = (
(90,0,l),
(216,0,l),
(216,329,l),
(200,432,l),
(200,556,l),
(90,556,l)
);
},
{
closed = 1;
nodes = (
(419,436,o),
(451,403,o),
(451,329,cs),
(451,0,l),
(574,0,l),
(574,380,ls),
(574,498,o),
(540,559,o),
(419,559,cs),
(377,559,ls),
(276,559,o),
(236,507,o),
(216,432,c),
(200,432,l),
(216,329,l),
(216,419,o),
(263,436,o),
(347,436,cs)
);
},
{
closed = 1;
nodes = (
(777,436,o),
(808,403,o),
(808,329,c),
(808,0,l),
(931,0,l),
(931,380,ls),
(931,498,o),
(897,559,o),
(776,559,cs),
(736,559,ls),
(635,559,o),
(595,507,o),
(575,432,c),
(550,432,l),
(574,329,l),
(574,419,o),
(622,436,o),
(706,436,cs)
);
}
);
userData = {
com.schriftgestaltung.Glyphs.lastChange = "2021-09-23 21:36:23 +0000";
};
width = 1011;
}
);
metricLeft = n;
metricRight = n;
unicode = 109;
}
{
color = 9;
glyphname = n;
layers = (
{
anchors = (
{
name = bottom;
pos = (373,0);
},
{
name = top;
pos = (396,556);
},
{
name = top_;
pos = (384,560);
}
);
layerId = master01;
shapes = (
{
closed = 1;
nodes = (
(90,0,l),
(215,0,l),
(215,333,l),
(199,432,l),
(199,556,l),
(90,556,l)
);
},
{
closed = 1;
nodes = (
(437,436,o),
(471,402,o),
(471,323,cs),
(471,0,l),
(594,0,l),
(594,380,ls),
(594,498,o),
(536,559,o),
(415,559,cs),
(373,559,ls),
(272,559,o),
(236,507,o),
(216,432,c),
(199,432,l),
(215,333,l),
(215,423,o),
(283,436,o),
(367,436,cs)
);
}
);
userData = {
com.schriftgestaltung.Glyphs.lastChange = "2021-09-27 04:28:34 +0000";
};
width = 674;
}
);
unicode = 110;
}
{
color = 6;
glyphname = o;
layers = (
{
anchors = (
{
name = bottom;
pos = (327,-13);
},
{
name = center;
pos = (331,278);
},
{
name = ogonek;
pos = (580,-1);
},
{
name = top;
pos = (344,566);
},
{
name = topright;
pos = (606,556);
}
);
layerId = master01;
shapes = (
{
closed = 1;
nodes = (
(501,225,ls),
(501,143,o),
(462,112,o),
(375,112,cs),
(323,112,ls),
(228,112,o),
(187,143,o),
(187,225,cs),
(187,331,ls),
(187,413,o),
(228,444,o),
(323,444,cs),
(375,444,ls),
(462,444,o),
(501,413,o),
(501,331,cs)
);
},
{
closed = 1;
nodes = (
(68,230,l),
(68,82,o),
(149,-10,o),
(284,-10,cs),
(404,-10,l),
(539,-10,o),
(620,82,o),
(620,230,cs),
(620,326,ls),
(620,474,o),
(539,566,o),
(404,566,cs),
(284,566,l),
(149,566,o),
(68,474,o),
(68,326,cs)
);
}
);
userData = {
com.schriftgestaltung.Glyphs.lastChange = "2021-09-27 05:12:57 +0000";
};
width = 688;
}
);
metricRight = "=|o";
unicode = 111;
}
{
color = 9;
glyphname = p;
layers = (
{
guides = (
{
pos = (83,0);
}
);
layerId = master01;
shapes = (
{
closed = 1;
nodes = (
(90,-211,l),
(213,-211,l),
(213,117,l),
(215,357,l),
(201,432,l),
(199,556,l),
(90,556,l)
);
},
{
closed = 1;
nodes = (
(178,119,l),
(178,0,l),
(380,0,ls),
(516,0,o),
(600,90,o),
(600,238,cs),
(600,380,ls),
(600,498,o),
(542,559,o),
(415,559,cs),
(373,559,ls),
(258,559,o),
(230,487,o),
(216,432,c),
(201,432,l),
(215,333,l),
(215,416,o),
(255,432,o),
(324,432,c),
(324,432,o),
(380,432,o),
(380,432,c),
(450,432,o),
(477,403,o),
(477,341,cs),
(477,209,ls),
(477,147,o),
(450,119,o),
(381,119,cs)
);
}
);
userData = {
com.schriftgestaltung.Glyphs.lastChange = "2021-09-23 22:41:44 +0000";
};
width = 675;
}
);
unicode = 112;
}
{
color = 9;
glyphname = q;
layers = (
{
guides = (
{
pos = (-2907,0);
},
{
pos = (32,354);
}
);
layerId = master01;
shapes = (
{
closed = 1;
nodes = (
(452,556,l),
(452,186,l),
(463,129,l),
(463,-210,l),
(582,-210,l),
(582,556,l)
);
},
{
closed = 1;
nodes = (
(197,412,o),
(228,437,o),
(292,437,c),
(464,437,l),
(495,556,l),
(495,556,o),
(404,556,o),
(267,556,cs),
(126,556,o),
(74,481,o),
(74,374,cs),
(74,175,ls),
(74,50,o),
(143,-6,o),
(257,-4,c),
(299,-4,l),
(389,-4,o),
(424,48,o),
(447,123,c),
(482,123,l),
(452,222,l),
(452,132,o),
(407,120,o),
(339,120,cs),
(292,120,ls),
(228,120,o),
(197,139,o),
(197,200,cs),
(197,221,o),
(197,351,o),
(197,352,c)
);
}
);
userData = {
com.schriftgestaltung.Glyphs.lastChange = "2021-09-23 22:46:30 +0000";
};
width = 672;
}
);
unicode = 113;
}
{
glyphname = r;
layers = (
{
layerId = master01;
shapes = (
{
closed = 1;
nodes = (
(90,0,l),
(216,0,l),
(216,362,l),
(199,432,l),
(199,556,l),
(90,556,l)
);
},
{
closed = 1;
nodes = (
(438,432,l),
(438,563,l),
(365,563,ls),
(266,563,o),
(238,513,o),
(216,432,c),
(135,432,l),
(216,330,l),
(216,402,o),
(249,432,o),
(324,432,cs)
);
}
);
userData = {
com.schriftgestaltung.Glyphs.lastChange = "2021-09-23 21:36:30 +0000";
};
width = 473;
}
);
metricLeft = n;
unicode = 114;
}
{
glyphname = s;
layers = (
{
layerId = master01;
shapes = (
{
closed = 1;
nodes = (
(59,392,ls),
(59,280,o),
(115,257,o),
(189,244,cs),
(352,216,ls),
(409,206,o),
(418,195,o),
(418,163,cs),
(418,131,o),
(406,120,o),
(349,120,cs),
(80,120,l),
(80,0,l),
(364,0,ls),
(470,0,o),
(526,53,o),
(526,157,cs),
(526,194,ls),
(526,288,o),
(470,314,o),
(404,324,cs),
(226,352,ls),
(174,360,o),
(167,376,o),
(167,400,cs),
(167,425,o),
(179,436,o),
(224,436,cs),
(492,436,l),
(492,556,l),
(219,556,ls),
(115,556,o),
(59,500,o),
(59,429,cs)
);
}
);
userData = {
com.schriftgestaltung.Glyphs.lastChange = "2021-09-23 23:17:49 +0000";
};
width = 587;
}
);
unicode = 115;
}
{
glyphname = t;
layers = (
{
layerId = master01;
shapes = (
{
closed = 1;
nodes = (
(40,436,l),
(417,436,l),
(417,556,l),
(40,556,l)
);
},
{
closed = 1;
nodes = (
(132,136,ls),
(132,42,o),
(178,-4,o),
(271,-4,cs),
(406,-4,l),
(406,115,l),
(317,115,ls),
(277,115,o),
(256,136,o),
(256,180,cs),
(256,674,l),
(132,674,l)
);
}
);
userData = {
com.schriftgestaltung.Glyphs.lastChange = "2021-09-23 23:21:16 +0000";
};
width = 463;
}
);
unicode = 116;
}
{
glyphname = u;
layers = (
{
anchors = (
{
name = bottom;
pos = (330,0);
},
{
name = ogonek;
pos = (593,10);
},
{
name = top;
pos = (325,556);
},
{
name = topright;
pos = (639,556);
}
);
layerId = master01;
shapes = (
{
closed = 1;
nodes = (
(569,559,l),
(446,559,l),
(446,197,l),
(460,127,l),
(465,0,l),
(569,0,l)
);
},
{
closed = 1;
nodes = (
(203,559,l),
(80,559,l),
(80,179,ls),
(80,65,o),
(135,0,o),
(237,0,cs),
(286,0,ls),
(387,0,o),
(423,52,o),
(443,127,c),
(460,127,l),
(446,238,l),
(446,157,o),
(391,127,o),
(312,127,cs),
(236,127,o),
(203,157,o),
(203,238,c)
);
}
);
userData = {
com.schriftgestaltung.Glyphs.lastChange = "2021-09-27 05:59:14 +0000";
};
width = 659;
}
);
unicode = 117;
}
{
color = 9;
glyphname = v;
layers = (
{
layerId = master01;
shapes = (
{
closed = 1;
nodes = (
(221,0,l),
(413,0,l),
(601,556,l),
(470,556,l),
(336,119,l),
(309,119,l),
(170,556,l),
(36,556,l)
);
}
);
userData = {
com.schriftgestaltung.Glyphs.lastChange = "2021-09-23 23:25:26 +0000";
};
width = 637;
}
);
unicode = 118;
}
{
color = 9;
glyphname = w;
layers = (
{
layerId = master01;
shapes = (
{
closed = 1;
nodes = (
(176,0,l),
(360,0,l),
(450,432,l),
(471,432,l),
(561,0,l),
(740,0,l),
(884,556,l),
(763,556,l),
(662,110,l),
(708,124,l),
(592,124,l),
(647,110,l),
(547,556,l),
(374,556,l),
(276,110,l),
(331,124,l),
(215,124,l),
(262,110,l),
(159,556,l),
(36,556,l)
);
}
);
userData = {
com.schriftgestaltung.Glyphs.lastChange = "2021-09-23 23:25:13 +0000";
};
width = 920;
}
);
metricLeft = v;
metricRight = v;
unicode = 119;
}
{
glyphname = x;
layers = (
{
layerId = master01;
shapes = (
{
closed = 1;
nodes = (
(155,0,l),
(273,227,l),
(290,227,l),
(417,0,l),
(558,0,l),
(367,319,l),
(365,248,l),
(546,556,l),
(420,556,l),
(290,340,l),
(273,340,l),
(154,556,l),
(16,556,l),
(197,248,l),
(195,319,l),
(11,0,l)
);
}
);
userData = {
com.schriftgestaltung.Glyphs.lastChange = "2021-09-24 01:16:01 +0000";
};
width = 569;
}
);
unicode = 120;
}
{
glyphname = y;
layers = (
{
layerId = master01;
shapes = (
{
closed = 1;
nodes = (
(228,0,l),
(342,0,l),
(342,134,l),
(306,134,l),
(167,556,l),
(36,556,l)
);
},
{
closed = 1;
nodes = (
(596,556,l),
(463,556,l),
(291,-39,ls),
(279,-79,o),
(255,-97,o),
(216,-97,c),
(111,-97,l),
(111,-210,l),
(216,-210,ls),
(320,-210,o),
(369,-165,o),
(411,-28,cs)
);
}
);
userData = {
com.schriftgestaltung.Glyphs.lastChange = "2021-09-24 01:15:34 +0000";
};
width = 632;
}
);
metricLeft = v;
metricRight = v;
unicode = 121;
}
{
glyphname = z;
layers = (
{
layerId = master01;
shapes = (
{
closed = 1;
nodes = (
(485,105,l),
(178,105,l),
(178,116,l),
(477,437,l),
(477,556,l),
(33,556,l),
(33,451,l),
(333,451,l),
(333,440,l),
(31,119,l),
(31,0,l),
(485,0,l)
);
}
);
userData = {
com.schriftgestaltung.Glyphs.lastChange = "2021-09-14 06:24:52 +0000";
};
width = 514;
}
);
unicode = 122;
}
{
glyphname = braceleft;
layers = (
{
guides = (
{
angle = 90;
pos = (446,219);
},
{
angle = 180.295;
pos = (721,277);
}
);
layerId = master01;
shapes = (
{
closed = 1;
nodes = (
(411,663,l),
(411,778,l),
(320,778,ls),
(212,778,o),
(164,733,o),
(163,576,cs),
(162,381,l),
(90,366,l),
(90,252,l),
(162,236,l),
(162,47,ls),
(162,-99,o),
(211,-145,o),
(319,-145,cs),
(384,-145,l),
(384,-30,l),
(348,-30,ls),
(303,-30,o),
(285,-4,o),
(285,47,cs),
(286,215,ls),
(286,238,o),
(266,291,o),
(220,291,cs),
(192,291,l),
(192,327,l),
(220,327,ls),
(266,327,o),
(286,363,o),
(286,402,cs),
(287,553,ls),
(288,632,o),
(312,663,o),
(368,663,cs)
);
}
);
userData = {
com.schriftgestaltung.Glyphs.lastChange = "2021-09-28 05:13:00 +0000";
};
width = 486;
}
);
unicode = 123;
}
{
glyphname = braceright;
layers = (
{
guides = (
{
angle = 90;
pos = (418,190);
},
{
pos = (453,275);
}
);
layerId = master01;
shapes = (
{
closed = 1;
nodes = (
(118,663,ls),
(174,663,o),
(198,632,o),
(199,553,cs),
(200,402,ls),
(200,363,o),
(220,327,o),
(266,327,cs),
(294,327,l),
(294,291,l),
(266,291,ls),
(220,291,o),
(200,238,o),
(200,215,cs),
(201,47,ls),
(201,-4,o),
(183,-30,o),
(138,-30,cs),
(102,-30,l),
(102,-145,l),
(167,-145,ls),
(275,-145,o),
(324,-99,o),
(324,47,cs),
(324,236,l),
(396,252,l),
(396,366,l),
(324,381,l),
(323,576,ls),
(322,733,o),
(274,778,o),
(166,778,cs),
(75,778,l),
(75,663,l)
);
}
);
userData = {
com.schriftgestaltung.Glyphs.lastChange = "2021-09-28 05:13:08 +0000";
};
width = 486;
}
);
unicode = 125;
}
{
glyphname = exclamdown;
layers = (
{
guides = (
{
pos = (-251,-164);
},
{
pos = (-185,429);
}
);
layerId = master01;
shapes = (
{
closed = 1;
nodes = (
(128,401,l),
(259,401,l),
(259,533,l),
(128,533,l)
);
},
{
closed = 1;
nodes = (
(271,-166,l),
(257,314,l),
(131,314,l),
(117,-166,l)
);
}
);
userData = {
com.schriftgestaltung.Glyphs.lastChange = "2021-09-28 04:58:39 +0000";
};
width = 388;
}
);
unicode = 161;
}
{
glyphname = guillemotleft;
layers = (
{
layerId = master01;
shapes = (
{
closed = 1;
nodes = (
(223,63,l),
(223,203,l),
(143,259,l),
(143,279,l),
(223,335,l),
(223,475,l),
(50,355,l),
(50,183,l)
);
},
{
closed = 1;
nodes = (
(427,63,l),
(427,203,l),
(347,259,l),
(347,279,l),
(427,335,l),
(427,475,l),
(254,355,l),
(254,183,l)
);
}
);
userData = {
com.schriftgestaltung.Glyphs.lastChange = "2021-09-26 14:11:36 +0000";
};
width = 477;
}
);
unicode = 171;
}
{
glyphname = periodcentered;
layers = (
{
layerId = master01;
shapes = (
{
closed = 1;
nodes = (
(213,280,l),
(213,449,l),
(44,449,l),
(44,280,l)
);
}
);
userData = {
com.schriftgestaltung.Glyphs.lastChange = "2021-09-28 05:24:49 +0000";
};
width = 257;
}
);
unicode = 183;
}
{
glyphname = guillemotright;
layers = (
{
layerId = master01;
shapes = (
{
closed = 1;
nodes = (
(427,355,l),
(254,475,l),
(254,335,l),
(334,279,l),
(334,259,l),
(254,203,l),
(254,63,l),
(427,183,l)
);
},
{
closed = 1;
nodes = (
(223,355,l),
(50,475,l),
(50,335,l),
(130,279,l),
(130,259,l),
(50,203,l),
(50,63,l),
(223,183,l)
);
}
);
userData = {
com.schriftgestaltung.Glyphs.lastChange = "2021-09-26 14:11:23 +0000";
};
width = 477;
}
);
unicode = 187;
}
{
glyphname = dotlessi;
layers = (
{
anchors = (
{
name = bottom;
pos = (149,0);
},
{
name = ogonek;
pos = (268,10);
},
{
name = top;
pos = (154,556);
}
);
layerId = master01;
shapes = (
{
closed = 1;
nodes = (
(91,0,l),
(217,0,l),
(217,556,l),
(91,556,l)
);
}
);
userData = {
com.schriftgestaltung.Glyphs.lastChange = "2021-09-27 06:10:10 +0000";
};
width = 298;
}
);
unicode = 305;
}
{
glyphname = acutecomb;
layers = (
{
anchors = (
{
name = _top;
pos = (0,556);
}
);
layerId = master01;
shapes = (
{
closed = 1;
nodes = (
(-138,639,l),
(185,721,l),
(149,839,l),
(-165,735,l)
);
}
);
userData = {
com.schriftgestaltung.Glyphs.lastChange = "2021-09-27 06:22:15 +0000";
};
width = 0;
}
);
unicode = 769;
}
{
glyphname = tildecomb;
layers = (
{
anchors = (
{
name = _top;
pos = (316,556);
},
{
name = top;
pos = (-271,826);
}
);
layerId = master01;
shapes = (
{
closed = 1;
nodes = (
(-483,641,l),
(-396,641,l),
(-396,688,ls),
(-396,711,o),
(-385,725,o),
(-357,725,cs),
(-313,725,o),
(-241,647,o),
(-166,647,cs),
(-90,647,o),
(-57,672,o),
(-57,754,cs),
(-57,817,l),
(-144,817,l),
(-144,788,ls),
(-144,759,o),
(-153,747,o),
(-178,747,cs),
(-224,747,o),
(-295,825,o),
(-370,825,cs),
(-449,825,o),
(-483,788,o),
(-483,692,cs)
);
}
);
userData = {
com.schriftgestaltung.Glyphs.lastChange = "2021-09-27 05:08:20 +0000";
};
width = 0;
}
);
unicode = 771;
}
{
glyphname = uni0308;
layers = (
{
anchors = (
{
name = _top;
pos = (0,556);
}
);
layerId = master01;
shapes = (
{
closed = 1;
nodes = (
(-200,640,l),
(-80,640,l),
(-80,760,l),
(-200,760,l)
);
},
{
closed = 1;
nodes = (
(80,640,l),
(200,640,l),
(200,760,l),
(80,760,l)
);
}
);
userData = {
com.schriftgestaltung.Glyphs.lastChange = "2021-09-27 06:23:20 +0000";
};
width = 0;
}
);
unicode = 776;
}
{
glyphname = endash;
layers = (
{
layerId = master01;
shapes = (
{
closed = 1;
nodes = (
(548,191,l),
(548,320,l),
(58,320,l),
(58,191,l)
);
}
);
userData = {
com.schriftgestaltung.Glyphs.lastChange = "2021-09-28 05:29:19 +0000";
};
width = 606;
}
);
unicode = 8211;
}
{
glyphname = emdash;
layers = (
{
layerId = master01;
shapes = (
{
closed = 1;
nodes = (
(1059,191,l),
(1059,320,l),
(58,320,l),
(58,191,l)
);
}
);
userData = {
com.schriftgestaltung.Glyphs.lastChange = "2021-09-28 05:29:26 +0000";
};
width = 1117;
}
);
unicode = 8212;
}
{
glyphname = quoteleft;
layers = (
{
layerId = master01;
shapes = (
{
closed = 1;
nodes = (
(40,451,l),
(170,451,l),
(206,699,l),
(97,699,l)
);
}
);
userData = {
com.schriftgestaltung.Glyphs.lastChange = "2021-09-27 19:25:48 +0000";
};
width = 256;
}
);
unicode = 8216;
}
{
glyphname = quoteright;
layers = (
{
layerId = master01;
shapes = (
{
closed = 1;
nodes = (
(216,698,l),
(86,698,l),
(50,449,l),
(159,450,l)
);
}
);
userData = {
com.schriftgestaltung.Glyphs.lastChange = "2021-09-27 19:25:37 +0000";
};
width = 256;
}
);
unicode = 8217;
}
{
glyphname = quotedblleft;
layers = (
{
layerId = master01;
shapes = (
{
closed = 1;
nodes = (
(40,451,l),
(170,451,l),
(206,699,l),
(97,699,l)
);
},
{
closed = 1;
nodes = (
(240,451,l),
(370,451,l),
(406,699,l),
(297,699,l)
);
}
);
userData = {
com.schriftgestaltung.Glyphs.lastChange = "2021-09-27 19:26:04 +0000";
};
width = 456;
}
);
unicode = 8220;
}
{
glyphname = quotedblright;
layers = (
{
layerId = master01;
shapes = (
{
closed = 1;
nodes = (
(216,698,l),
(86,698,l),
(50,449,l),
(159,450,l)
);
},
{
closed = 1;
nodes = (
(416,698,l),
(286,698,l),
(250,449,l),
(359,450,l)
);
}
);
userData = {
com.schriftgestaltung.Glyphs.lastChange = "2021-09-27 19:26:36 +0000";
};
width = 456;
}
);
unicode = 8221;
}
{
glyphname = quotedblbase;
layers = (
{
layerId = master01;
shapes = (
{
closed = 1;
nodes = (
(369,-114,l),
(454,129,l),
(320,129,l),
(254,-114,l)
);
},
{
closed = 1;
nodes = (
(155,-114,l),
(226,129,l),
(88,129,l),
(40,-114,l)
);
}
);
userData = {
com.schriftgestaltung.Glyphs.lastChange = "2021-09-28 05:34:00 +0000";
};
width = 504;
}
);
unicode = 8222;
}
{
glyphname = bullet;
layers = (
{
layerId = master01;
shapes = (
{
closed = 1;
nodes = (
(282,248,l),
(282,470,l),
(60,470,l),
(60,248,l)
);
}
);
userData = {
com.schriftgestaltung.Glyphs.lastChange = "2021-09-28 05:25:36 +0000";
};
width = 342;
}
);
unicode = 8226;
}
{
glyphname = guilsinglleft;
layers = (
{
guides = (
{
angle = 90;
pos = (8,254);
},
{
angle = 90;
pos = (275,260);
}
);
layerId = master01;
shapes = (
{
closed = 1;
nodes = (
(253,63,l),
(253,203,l),
(143,259,l),
(143,279,l),
(253,335,l),
(253,475,l),
(50,355,l),
(50,183,l)
);
}
);
userData = {
com.schriftgestaltung.Glyphs.lastChange = "2021-09-26 15:03:39 +0000";
};
width = 303;
}
);
unicode = 8249;
}
{
glyphname = guilsinglright;
layers = (
{
layerId = master01;
shapes = (
{
closed = 1;
nodes = (
(253,355,l),
(50,475,l),
(50,335,l),
(160,279,l),
(160,259,l),
(50,203,l),
(50,63,l),
(253,183,l)
);
}
);
userData = {
com.schriftgestaltung.Glyphs.lastChange = "2021-09-26 14:12:39 +0000";
};
width = 303;
}
);
unicode = 8250;
}
{
glyphname = leftArrow;
layers = (
{
layerId = master01;
shapes = (
{
closed = 1;
nodes = (
(30,443,l),
(30,313,l),
(385,-20,l),
(469,65,l),
(106,378,l),
(196,273,l),
(196,348,l),
(72,313,l),
(786,313,l),
(786,443,l),
(72,443,l),
(196,414,l),
(196,477,l),
(106,378,l),
(469,691,l),
(385,776,l)
);
}
);
userData = {
com.schriftgestaltung.Glyphs.lastChange = "2021-09-26 03:02:53 +0000";
};
width = 816;
}
);
unicode = 8592;
}
{
glyphname = upArrow;
layers = (
{
layerId = master01;
shapes = (
{
closed = 1;
nodes = (
(493,756,l),
(363,756,l),
(30,401,l),
(115,317,l),
(428,680,l),
(323,590,l),
(398,590,l),
(363,714,l),
(363,0,l),
(493,0,l),
(493,714,l),
(464,590,l),
(527,590,l),
(428,680,l),
(741,317,l),
(826,401,l)
);
}
);
userData = {
com.schriftgestaltung.Glyphs.lastChange = "2021-09-26 03:03:30 +0000";
};
width = 856;
}
);
unicode = 8593;
}
{
glyphname = rightArrow;
layers = (
{
layerId = master01;
shapes = (
{
closed = 1;
nodes = (
(786,313,l),
(786,443,l),
(431,776,l),
(347,691,l),
(710,378,l),
(620,483,l),
(620,408,l),
(744,443,l),
(30,443,l),
(30,313,l),
(744,313,l),
(620,342,l),
(620,279,l),
(710,378,l),
(347,65,l),
(431,-20,l)
);
}
);
userData = {
com.schriftgestaltung.Glyphs.lastChange = "2021-09-26 03:03:11 +0000";
};
width = 816;
}
);
unicode = 8594;
}
{
glyphname = downArrow;
layers = (
{
layerId = master01;
shapes = (
{
closed = 1;
nodes = (
(363,0,l),
(493,0,l),
(826,355,l),
(741,439,l),
(428,76,l),
(533,166,l),
(458,166,l),
(493,42,l),
(493,756,l),
(363,756,l),
(363,42,l),
(392,166,l),
(329,166,l),
(428,76,l),
(115,439,l),
(30,355,l)
);
}
);
userData = {
com.schriftgestaltung.Glyphs.lastChange = "2021-09-26 03:03:44 +0000";
};
width = 856;
}
);
unicode = 8595;
}
{
glyphname = leftRightArrow;
layers = (
{
layerId = master01;
shapes = (
{
closed = 1;
nodes = (
(353,143,l),
(131,370,l),
(192,291,l),
(192,341,l),
(93,313,l),
(663,313,l),
(663,427,l),
(93,427,l),
(192,394,l),
(192,453,l),
(132,370,l),
(353,593,l),
(276,670,l),
(60,422,l),
(60,318,l),
(276,65,l)
);
},
{
closed = 1;
nodes = (
(795,318,l),
(795,422,l),
(579,670,l),
(502,593,l),
(723,370,l),
(663,453,l),
(663,394,l),
(762,422,l),
(192,422,l),
(192,318,l),
(762,318,l),
(663,341,l),
(663,291,l),
(724,370,l),
(502,143,l),
(579,65,l)
);
}
);
userData = {
com.schriftgestaltung.Glyphs.lastChange = "2021-09-29 06:32:25 +0000";
};
width = 856;
}
);
unicode = 8596;
}
{
glyphname = upDownArrow;
layers = (
{
layerId = master01;
shapes = (
{
closed = 1;
nodes = (
(377,0,l),
(481,0,l),
(730,217,l),
(652,294,l),
(429,82,l),
(513,132,l),
(453,132,l),
(488,34,l),
(488,603,l),
(371,603,l),
(371,34,l),
(400,132,l),
(350,132,l),
(429,81,l),
(203,294,l),
(125,217,l)
);
},
{
closed = 1;
nodes = (
(203,442,l),
(429,654,l),
(350,603,l),
(400,603,l),
(377,702,l),
(377,132,l),
(482,132,l),
(482,702,l),
(453,603,l),
(513,603,l),
(429,653,l),
(652,442,l),
(730,519,l),
(481,736,l),
(377,736,l),
(125,519,l)
);
}
);
userData = {
com.schriftgestaltung.Glyphs.lastChange = "2021-09-29 06:32:11 +0000";
};
width = 855;
}
);
unicode = 8597;
}
{
glyphname = northWestArrow;
layers = (
{
layerId = master01;
shapes = (
{
closed = 1;
nodes = (
(126,658,l),
(216,751,l),
(703,744,l),
(705,625,l),
(226,652,l),
(364,665,l),
(312,611,l),
(245,725,l),
(759,229,l),
(669,129,l),
(155,625,l),
(266,563,l),
(222,518,l),
(228,650,l),
(270,174,l),
(150,171,l)
);
}
);
userData = {
com.schriftgestaltung.Glyphs.lastChange = "2021-09-29 06:37:02 +0000";
};
width = 856;
}
);
unicode = 8598;
}
{
glyphname = northEastArrow;
layers = (
{
layerId = master01;
shapes = (
{
closed = 1;
nodes = (
(725,658,l),
(634,751,l),
(148,744,l),
(146,625,l),
(625,652,l),
(487,665,l),
(539,611,l),
(604,724,l),
(90,228,l),
(183,130,l),
(695,624,l),
(585,563,l),
(629,518,l),
(625,652,l),
(581,174,l),
(700,171,l)
);
}
);
userData = {
com.schriftgestaltung.Glyphs.lastChange = "2021-09-29 06:34:59 +0000";
};
width = 856;
}
);
unicode = 8599;
}
{
glyphname = southEastArrow;
layers = (
{
layerId = master01;
shapes = (
{
closed = 1;
nodes = (
(619,-4,l),
(713,86,l),
(710,573,l),
(591,575,l),
(610,99,l),
(628,234,l),
(573,182,l),
(684,116,l),
(193,634,l),
(98,545,l),
(590,27,l),
(525,137,l),
(480,93,l),
(611,98,l),
(136,144,l),
(133,25,l)
);
}
);
userData = {
com.schriftgestaltung.Glyphs.lastChange = "2021-09-29 06:34:10 +0000";
};
width = 856;
}
);
unicode = 8600;
}
{
glyphname = southWestArrow;
layers = (
{
layerId = master01;
shapes = (
{
closed = 1;
nodes = (
(128,96,l),
(218,2,l),
(705,9,l),
(706,129,l),
(228,102,l),
(365,89,l),
(313,143,l),
(248,30,l),
(762,526,l),
(671,624,l),
(157,131,l),
(267,190,l),
(224,235,l),
(231,105,l),
(271,579,l),
(152,582,l)
);
}
);
userData = {
com.schriftgestaltung.Glyphs.lastChange = "2021-09-29 06:36:33 +0000";
};
width = 856;
}
);
unicode = 8601;
}
{
glyphname = Advertencia;
layers = (
{
layerId = master01;
shapes = (
{
closed = 1;
nodes = (
(823,0,l),
(823,104,l),
(469,761,l),
(358,761,l),
(9,104,l),
(9,0,l)
);
},
{
closed = 1;
nodes = (
(363,226,l),
(469,226,l),
(469,110,l),
(363,110,l)
);
},
{
closed = 1;
nodes = (
(352,580,l),
(480,580,l),
(470,278,l),
(362,278,l)
);
}
);
userData = {
com.schriftgestaltung.Glyphs.lastChange = "2021-09-28 20:51:44 +0000";
};
width = 832;
}
);
}
{
glyphname = Banca;
layers = (
{
layerId = master01;
shapes = (
{
closed = 1;
nodes = (
(84,227,l),
(748,227,l),
(748,341,l),
(84,341,l)
);
},
{
closed = 1;
nodes = (
(160,396,l),
(673,396,l),
(673,510,l),
(160,510,l)
);
},
{
closed = 1;
nodes = (
(160,565,l),
(673,565,l),
(673,679,l),
(160,679,l)
);
},
{
closed = 1;
nodes = (
(160,236,l),
(160,0,l),
(280,0,l),
(280,236,l)
);
},
{
closed = 1;
nodes = (
(553,236,l),
(553,0,l),
(673,0,l),
(673,236,l)
);
},
{
closed = 1;
nodes = (
(160,756,l),
(160,604,l),
(280,604,l),
(280,756,l)
);
},
{
closed = 1;
nodes = (
(553,756,l),
(553,604,l),
(673,604,l),
(673,756,l)
);
}
);
userData = {
com.schriftgestaltung.Glyphs.lastChange = "2021-09-28 20:52:01 +0000";
};
width = 832;
}
);
}
{
glyphname = Basura;
layers = (
{
layerId = master01;
shapes = (
{
closed = 1;
nodes = (
(178,67,ls),
(178,24,o),
(208,0,o),
(263,0,cs),
(569,0,ls),
(624,0,o),
(654,24,o),
(654,67,cs),
(654,516,l),
(534,516,l),
(534,79,l),
(298,79,l),
(298,516,l),
(178,516,l)
);
},
{
closed = 1;
nodes = (
(100,580,l),
(100,466,l),
(732,466,l),
(732,580,l)
);
},
{
closed = 1;
nodes = (
(356,76,l),
(476,76,l),
(476,516,l),
(356,516,l)
);
},
{
closed = 1;
nodes = (
(190,642,l),
(638,642,l),
(638,691,ls),
(638,733,o),
(615,756,o),
(573,756,cs),
(255,756,ls),
(213,756,o),
(190,733,o),
(190,691,cs)
);
}
);
userData = {
com.schriftgestaltung.Glyphs.lastChange = "2021-09-28 20:52:16 +0000";
};
width = 832;
}
);
}
{
glyphname = Disc;
layers = (
{
layerId = master01;
shapes = (
{
closed = 1;
nodes = (
(710,160,l),
(650,340,l),
(454,339,ls),
(424,339,o),
(408,355,o),
(408,385,cs),
(408,583,l),
(288,583,l),
(288,350,ls),
(288,275,o),
(330,233,o),
(405,234,cs),
(570,236,l),
(630,56,l),
(792,56,l),
(792,160,l)
);
},
{
closed = 1;
nodes = (
(510,413,l),
(510,517,l),
(324,517,l),
(324,413,l)
);
},
{
closed = 1;
nodes = (
(287,630,l),
(413,630,l),
(413,756,l),
(287,756,l)
);
},
{
closed = 0;
nodes = (
(371,441,l)
);
},
{
closed = 1;
nodes = (
(528,181,l),
(498,138,o),
(447,113,o),
(384,113,c),
(280,113,o),
(211,182,o),
(211,287,c),
(211,321,o),
(218,351,o),
(232,377,c),
(232,544,l),
(145,491,o),
(86,395,o),
(86,287,c),
(86,122,o),
(220,-13,o),
(384,-13,c),
(455,-13,o),
(520,12,o),
(572,54,c)
);
}
);
userData = {
com.schriftgestaltung.Glyphs.lastChange = "2021-09-28 20:52:33 +0000";
};
width = 832;
}
);
}
{
glyphname = Extintor;
layers = (
{
layerId = master01;
shapes = (
{
closed = 1;
nodes = (
(102,118,l),
(208,120,l),
(208,348,ls),
(208,547,o),
(190,623,o),
(358,623,cs),
(563,623,l),
(761,558,l),
(761,765,l),
(563,717,l),
(358,717,ls),
(109,717,o),
(98,614,o),
(100,346,cs)
);
},
{
closed = 1;
nodes = (
(276,168,l),
(589,168,l),
(589,113,l),
(276,113,l)
);
},
{
closed = 1;
nodes = (
(276,0,l),
(589,0,l),
(589,400,l),
(589,490,o),
(549,530,o),
(459,530,c),
(410,530,l),
(317,530,o),
(276,490,o),
(276,400,c)
);
},
{
closed = 1;
nodes = (
(499,584,l),
(499,756,l),
(379,756,l),
(379,584,l)
);
}
);
userData = {
com.schriftgestaltung.Glyphs.lastChange = "2021-09-28 20:52:48 +0000";
};
width = 832;
}
);
}
{
glyphname = Jardin;
layers = (
{
layerId = master01;
shapes = (
{
closed = 1;
nodes = (
(747,-1,l),
(747,120,l),
(85,120,l),
(85,-1,l)
);
},
{
closed = 1;
nodes = (
(485,276,ls),
(604,276,o),
(659,339,o),
(659,456,cs),
(659,581,ls),
(659,710,o),
(622,762,o),
(486,762,cs),
(349,762,ls),
(240,762,o),
(175,689,o),
(175,582,cs),
(175,456,ls),
(175,329,o),
(210,276,o),
(349,276,cs)
);
},
{
closed = 1;
nodes = (
(387,383,l),
(311,383,o),
(289,395,o),
(289,464,cs),
(289,574,ls),
(289,643,o),
(311,655,o),
(387,655,cs),
(447,655,ls),
(523,655,o),
(545,643,o),
(545,574,cs),
(545,464,ls),
(545,395,o),
(523,383,o),
(447,383,cs)
);
},
{
closed = 1;
nodes = (
(467,113,l),
(467,383,l),
(347,383,l),
(347,113,l)
);
}
);
userData = {
com.schriftgestaltung.Glyphs.lastChange = "2021-09-28 20:53:02 +0000";
};
width = 832;
}
);
}
{
glyphname = Mascota;
layers = (
{
layerId = master01;
shapes = (
{
closed = 1;
nodes = (
(228,0,l),
(228,194,l),
(201,99,l),
(317,281,l),
(144,252,l),
(108,152,l),
(108,0,l)
);
},
{
closed = 1;
nodes = (
(456,0,l),
(338,214,l),
(265,101,l),
(325,0,l)
);
},
{
closed = 1;
nodes = (
(645,0,l),
(655,428,l),
(554,541,l),
(144,541,l),
(144,252,l),
(579,252,l),
(527,304,l),
(527,0,l)
);
},
{
closed = 1;
nodes = (
(703,454,l),
(755,498,l),
(703,454,l),
(820,411,l),
(884,484,l),
(771,664,l),
(766,590,l),
(815,726,l),
(783,759,l),
(599,570,l)
);
},
{
closed = 0;
nodes = (
(203,520,l)
);
},
{
closed = 1;
nodes = (
(183,425,l),
(255,481,l),
(123,656,l),
(50,599,l)
);
}
);
userData = {
com.schriftgestaltung.Glyphs.lastChange = "2021-09-28 20:53:48 +0000";
};
width = 898;
}
);
}
{
glyphname = questiondown.ss01;
layers = (
{
guides = (
{
pos = (571,-175);
}
);
layerId = master01;
shapes = (
{
closed = 1;
nodes = (
(355,77,l),
(425,77,o),
(461,106,o),
(461,173,cs),
(461,205,o),
(461,302,o),
(461,325,c),
(339,325,l),
(339,285,o),
(339,258,o),
(339,233,cs),
(339,208,o),
(327,197,o),
(299,197,cs),
(149,196,ls),
(73,195,o),
(40,156,o),
(40,86,cs),
(40,-66,ls),
(40,-142,o),
(53,-175,o),
(129,-175,cs),
(463,-175,l),
(463,-50,l),
(199,-50,ls),
(172,-50,o),
(160,-32,o),
(160,-12,cs),
(160,8,o),
(160,26,o),
(160,34,cs),
(160,64,o),
(172,77,o),
(199,77,cs)
);
},
{
closed = 1;
nodes = (
(334,529,l),
(334,400,l),
(463,400,l),
(463,529,l)
);
}
);
userData = {
com.schriftgestaltung.Glyphs.lastChange = "2021-09-28 05:04:13 +0000";
};
width = 570;
}
);
}
